<?xml version="1.0" encoding="utf-8"?>
<!-- Generator: Adobe Illustrator 23.1.0, SVG Export Plug-In . SVG Version: 6.00 Build 0)  -->
<svg version="1.1" id="Layer_1" xmlns="http://www.w3.org/2000/svg" xmlns:xlink="http://www.w3.org/1999/xlink" x="0px" y="0px"
	 viewBox="0 0 391 122.46" style="enable-background:new 0 0 391 122.46;" xml:space="preserve">
<style type="text/css">
	.st0{clip-path:url(#SVGID_2_);fill:none;stroke:#000000;stroke-width:0.9875;}
	.st1{fill:#64B5F6;}
	.st2{clip-path:url(#SVGID_4_);fill:none;stroke:#64B5F6;stroke-width:0.9875;}
	.st3{clip-path:url(#SVGID_6_);fill:none;stroke:#64B5F6;stroke-width:0.9875;}
	.st4{fill:none;stroke:#64B5F6;stroke-width:0.9875;}
	.st5{clip-path:url(#SVGID_8_);fill:none;stroke:#64B5F6;stroke-width:0.9875;}
</style>
<g>
	<g>
		<defs>
			<rect id="SVGID_1_" width="391" height="123"/>
		</defs>
		<clipPath id="SVGID_2_">
			<use xlink:href="#SVGID_1_"  style="overflow:visible;"/>
		</clipPath>
		<path class="st0" d="M218.84,75.82h12.43L257.1,1.44h-13.5L227.02,51.7c-0.53,1.81-1.27,4.25-1.8,6.8
			c-0.64-2.55-1.38-4.99-1.91-6.8L206.62,1.44h-13.71L218.84,75.82z M218.84,75.82 M308.22,75.82h13.39L293.98,1.44h-12.64
			L253.6,75.82h13.5l5.84-16.26h29.43L308.22,75.82z M298.34,48.09h-21.36l8.29-22.32c0.74-2.12,1.8-5.31,2.44-7.54
			c0.53,2.23,1.59,5.42,2.45,7.54L298.34,48.09z M298.34,48.09 M390.06,75.82V1.44h-12.64v46.22c0,1.6,0.11,3.72,0.32,5.63
			c-0.96-1.91-2.02-4.04-3.08-5.63L344.58,1.44h-12.32v74.38h12.64V28.85c0-1.7-0.11-3.82-0.32-5.52c0.96,1.91,2.13,4.04,3.08,5.52
			l30.82,46.97H390.06z M390.06,75.82"/>
	</g>
	<path d="M7.29,115.79h1.69l6.43-17.58H13l-4.16,11.97c-0.2,0.62-0.41,1.17-0.62,1.86c-0.21-0.69-0.41-1.24-0.62-1.86L3.34,98.21
		H0.86L7.29,115.79z M7.29,115.79"/>
	<path d="M20.47,94.6c0.92,0,1.58-0.69,1.58-1.58c0-0.93-0.66-1.65-1.58-1.65c-0.89,0-1.58,0.72-1.58,1.65
		C18.89,93.91,19.58,94.6,20.47,94.6L20.47,94.6z M19.27,115.79h2.41V98.21h-2.41V115.79z M19.27,115.79"/>
	<path d="M32.18,116.2c3.64,0,5.91-1.89,5.91-4.81c0-3.54-2.99-4.75-5.61-5.78c-2.06-0.83-4.02-1.58-4.02-3.37
		c0-1.41,1.31-2.3,3.34-2.3c1.93,0,3.3,1,4.19,1.89l1.58-1.34c-1.41-1.69-3.34-2.68-5.71-2.68c-3.31,0-5.68,1.79-5.68,4.47
		c0,2.96,2.48,4.2,5.26,5.33c2.13,0.86,4.37,1.79,4.37,3.92c0,1.65-1.51,2.55-3.44,2.55c-1.82,0-3.51-1.14-4.57-2.41l-1.69,1.48
		C27.6,114.89,29.8,116.2,32.18,116.2L32.18,116.2z M32.18,116.2"/>
	<path d="M53.13,115.79h2.41V98.21h-2.41v10.8c0,3.82-1.89,5.02-4.37,5.02c-2.34,0-4.06-1.41-4.06-5.09V98.21H42.3v9.8
		c0,5.78,1.93,8.18,6.46,8.18c1.82,0,3.13-0.48,4.37-2.1V115.79z M53.13,115.79"/>
	<path d="M71.18,115.79h2.23v-11.9c0-4.98-3.34-6.09-5.85-6.09c-2.41,0-4.75,1.03-6.16,1.93l0.69,2.06
		c1.31-0.89,3.48-1.89,5.23-1.89c1.96,0,3.85,0.76,3.85,4.3v1.48c-1.72-0.93-3.27-1.24-4.75-1.24c-3.34,0-6.4,1.75-6.4,5.81
		c0,3.96,2.44,5.95,5.98,5.95c1.89,0,3.75-0.86,5.16-2.13V115.79z M66.27,114.1c-2.55,0-3.99-1.55-3.99-3.85
		c0-2.54,2.03-3.71,4.4-3.71c1.51,0,3.37,0.69,4.51,1.45v3.41C70.12,112.69,68.4,114.1,66.27,114.1L66.27,114.1z M66.27,114.1"/>
	<path d="M78.44,115.79h2.41V90.95l-2.41,1.17V115.79z M78.44,115.79"/>
	<path d="M103.89,115.79h2.23v-11.9c0-4.98-3.34-6.09-5.85-6.09c-2.41,0-4.75,1.03-6.16,1.93l0.69,2.06
		c1.31-0.89,3.47-1.89,5.23-1.89c1.96,0,3.86,0.76,3.86,4.3v1.48c-1.72-0.93-3.27-1.24-4.75-1.24c-3.34,0-6.4,1.75-6.4,5.81
		c0,3.96,2.44,5.95,5.99,5.95c1.89,0,3.75-0.86,5.16-2.13V115.79z M98.97,114.1c-2.54,0-3.99-1.55-3.99-3.85
		c0-2.54,2.03-3.71,4.4-3.71c1.52,0,3.37,0.69,4.51,1.45v3.41C102.82,112.69,101.1,114.1,98.97,114.1L98.97,114.1z M98.97,114.1"/>
	<path d="M121.8,115.79h2.41v-9.73c0-5.81-1.99-8.25-6.29-8.25c-1.86,0-3.44,0.75-4.54,2.34v-1.93h-2.41v17.58h2.41v-10.8
		c0-3.82,1.85-5.02,4.33-5.02c2.34,0,4.09,1.37,4.09,5.09V115.79z M121.8,115.79"/>
	<path d="M139.68,115.79h2.24v-11.9c0-4.98-3.34-6.09-5.85-6.09c-2.41,0-4.75,1.03-6.16,1.93l0.69,2.06
		c1.31-0.89,3.47-1.89,5.23-1.89c1.96,0,3.85,0.76,3.85,4.3v1.48c-1.72-0.93-3.27-1.24-4.75-1.24c-3.34,0-6.4,1.75-6.4,5.81
		c0,3.96,2.44,5.95,5.98,5.95c1.89,0,3.75-0.86,5.16-2.13V115.79z M134.76,114.1c-2.54,0-3.99-1.55-3.99-3.85
		c0-2.54,2.03-3.71,4.4-3.71c1.51,0,3.37,0.69,4.5,1.45v3.41C138.62,112.69,136.9,114.1,134.76,114.1L134.76,114.1z M134.76,114.1"
		/>
	<path d="M146.93,115.79h2.41V90.95l-2.41,1.17V115.79z M146.93,115.79"/>
	<path d="M157.12,122.46h2.38l8.98-24.25h-2.58l-4.51,12.49l-0.62,1.79c-0.21-0.62-0.38-1.21-0.59-1.79l-4.44-12.49h-2.44
		l6.43,17.03L157.12,122.46z M157.12,122.46"/>
	<path d="M177.23,116.2c3.65,0,5.91-1.89,5.91-4.81c0-3.54-2.99-4.75-5.6-5.78c-2.06-0.83-4.02-1.58-4.02-3.37
		c0-1.41,1.3-2.3,3.33-2.3c1.93,0,3.3,1,4.2,1.89l1.58-1.34c-1.41-1.69-3.34-2.68-5.71-2.68c-3.3,0-5.68,1.79-5.68,4.47
		c0,2.96,2.48,4.2,5.26,5.33c2.13,0.86,4.37,1.79,4.37,3.92c0,1.65-1.51,2.55-3.44,2.55c-1.82,0-3.51-1.14-4.57-2.41l-1.69,1.48
		C172.66,114.89,174.86,116.2,177.23,116.2L177.23,116.2z M177.23,116.2"/>
	<path d="M193.96,116.2c2.03,0,3.99-0.86,5.37-1.99l-1.31-1.62c-1.34,1-2.68,1.38-3.95,1.38c-3,0-4.78-2.41-5.19-5.98h11.97
		c0.07-0.76,0.07-1.31,0.07-1.68c0-5.92-3.2-8.5-6.95-8.5c-4.5,0-7.64,3.34-7.64,9.18C186.32,111.93,189.21,116.2,193.96,116.2
		L193.96,116.2z M188.8,105.81c0.21-3.99,2.34-5.84,5.16-5.84c1.86,0,4.47,1.1,4.51,5.84H188.8z M188.8,105.81"/>
	<path d="M205.06,115.79h2.41v-9.94c0-4.33,2.51-5.64,4.27-5.64c1.14,0,1.82,0.38,2.27,0.65l0.38-2.33
		c-0.48-0.34-1.37-0.72-2.48-0.72c-2.17,0-3.64,1.2-4.44,2.89v-2.48h-2.41V115.79z M205.06,115.79"/>
	<path d="M231.06,116.2c4.5,0,7.53-3.44,7.53-9.21c0-5.85-3.03-9.18-7.53-9.18c-4.51,0-7.54,3.44-7.54,9.22
		C223.52,112.86,226.55,116.2,231.06,116.2L231.06,116.2z M231.06,114.03c-3.27,0-5.02-2.65-5.02-7.02c0-4.58,1.75-7.05,5.02-7.05
		c3.26,0,5.02,2.65,5.02,7.01C236.08,111.38,234.25,114.03,231.06,114.03L231.06,114.03z M231.06,114.03"/>
	<path d="M246.09,100.38h4.23v-2.17h-4.23v-2.61c0-0.96,0.04-2.06,1.72-2.06c1,0,1.79,0.31,2.51,0.69v-2.1
		c-0.76-0.41-1.69-0.82-2.99-0.82c-1.82,0-3.64,1.03-3.64,3.92v2.99h-2.82v2.17h2.82v15.41h2.41V100.38z M246.09,100.38"/>
	<path d="M271.69,115.79h2.41v-9.73c0-5.81-1.99-8.25-6.29-8.25c-1.86,0-3.44,0.75-4.54,2.34v-1.93h-2.41v17.58h2.41v-10.8
		c0-3.82,1.85-5.02,4.33-5.02c2.34,0,4.09,1.37,4.09,5.09V115.79z M271.69,115.79"/>
	<path d="M285.89,116.2c2.03,0,3.99-0.86,5.37-1.99l-1.31-1.62c-1.34,1-2.68,1.38-3.95,1.38c-2.99,0-4.78-2.41-5.2-5.98h11.97
		c0.07-0.76,0.07-1.31,0.07-1.68c0-5.92-3.2-8.5-6.95-8.5c-4.5,0-7.63,3.34-7.63,9.18C278.26,111.93,281.15,116.2,285.89,116.2
		L285.89,116.2z M280.73,105.81c0.2-3.99,2.34-5.84,5.16-5.84c1.86,0,4.47,1.1,4.51,5.84H280.73z M280.73,105.81"/>
	<path d="M301.05,116.2c1.34,0,2.3-0.31,3.2-0.79l0.28-2.51c-0.66,0.45-1.48,1.03-2.65,1.03c-1.69,0-1.89-1.27-1.89-2.78v-10.77
		h4.47v-2.17h-4.47v-7.25l-2.41,1.2v6.05h-2.99v2.17h2.99v11.8C297.58,114.48,298.55,116.2,301.05,116.2L301.05,116.2z
		 M301.05,116.2"/>
	<path d="M311.29,115.79h2.2l3.44-10.66c0.17-0.55,0.45-1.41,0.72-2.34c0.27,0.93,0.58,1.82,0.75,2.37l3.51,10.63h2.17l4.33-17.58
		h-2.41l-2.78,12.66c-0.14,0.69-0.31,1.37-0.45,2.1c-0.2-0.72-0.38-1.41-0.58-2.1l-3.68-12.66h-1.65l-3.68,12.66
		c-0.17,0.65-0.34,1.24-0.52,1.93l-0.41-1.93l-2.89-12.66h-2.41L311.29,115.79z M311.29,115.79"/>
	<path d="M338.17,116.2c4.51,0,7.54-3.44,7.54-9.21c0-5.85-3.03-9.18-7.54-9.18c-4.5,0-7.53,3.44-7.53,9.22
		C330.64,112.86,333.67,116.2,338.17,116.2L338.17,116.2z M338.17,114.03c-3.27,0-5.02-2.65-5.02-7.02c0-4.58,1.75-7.05,5.02-7.05
		c3.27,0,5.02,2.65,5.02,7.01C343.2,111.38,341.37,114.03,338.17,114.03L338.17,114.03z M338.17,114.03"/>
	<path d="M350.05,115.79h2.41v-9.94c0-4.33,2.51-5.64,4.27-5.64c1.13,0,1.82,0.38,2.27,0.65l0.38-2.33
		c-0.48-0.34-1.38-0.72-2.48-0.72c-2.17,0-3.65,1.2-4.44,2.89v-2.48h-2.41V115.79z M350.05,115.79"/>
	<path d="M375.89,115.79l-6.6-12.9l4.4-4.68h-2.79l-6.23,6.71V90.95l-2.41,1.17v23.66h2.41v-8.02l2.92-3.13l5.64,11.14H375.89z
		 M375.89,115.79"/>
	<path d="M384.15,116.2c3.64,0,5.91-1.89,5.91-4.81c0-3.54-2.99-4.75-5.61-5.78c-2.06-0.83-4.02-1.58-4.02-3.37
		c0-1.41,1.31-2.3,3.34-2.3c1.93,0,3.3,1,4.2,1.89l1.58-1.34c-1.41-1.69-3.34-2.68-5.71-2.68c-3.31,0-5.68,1.79-5.68,4.47
		c0,2.96,2.48,4.2,5.26,5.33c2.13,0.86,4.37,1.79,4.37,3.92c0,1.65-1.51,2.55-3.44,2.55c-1.82,0-3.51-1.14-4.57-2.41l-1.69,1.48
		C379.57,114.89,381.77,116.2,384.15,116.2L384.15,116.2z M384.15,116.2"/>
	<path class="st1" d="M62.96,75.82h9.02v-34.9c0-12.92-8.09-19.59-18.66-19.59c-6.84,0-12.23,3.02-15.34,7.81
		c-3.01-5.21-8.5-7.81-14.2-7.81c-5.6,0-10.68,1.98-13.9,6.25v-5H0.86v53.23h9.02v-32.4c0-8.44,4.36-13.75,11.41-13.75
		c8.19,0,10.57,6.56,10.57,13.85v32.29h9.02V43.84c0-8.44,4.56-14.17,11.4-14.17c8.19,0,10.68,6.56,10.68,13.85V75.82z M62.96,75.82
		"/>
	<g>
		<defs>
			<rect id="SVGID_3_" width="391" height="123"/>
		</defs>
		<clipPath id="SVGID_4_">
			<use xlink:href="#SVGID_3_"  style="overflow:visible;"/>
		</clipPath>
		<path class="st2" d="M62.96,75.82h9.02v-34.9c0-12.92-8.09-19.59-18.66-19.59c-6.84,0-12.23,3.02-15.34,7.81
			c-3.01-5.21-8.5-7.81-14.2-7.81c-5.6,0-10.68,1.98-13.9,6.25v-5H0.86v53.23h9.02v-32.4c0-8.44,4.36-13.75,11.41-13.75
			c8.19,0,10.57,6.56,10.57,13.85v32.29h9.02V43.84c0-8.44,4.56-14.17,11.4-14.17c8.19,0,10.68,6.56,10.68,13.85V75.82z
			 M62.96,75.82"/>
	</g>
	<path class="st1" d="M92.35,12.9c3.21,0,5.7-2.5,5.7-5.63c0-3.23-2.49-5.84-5.7-5.84c-3.11,0-5.6,2.61-5.6,5.84
		C86.75,10.4,89.24,12.9,92.35,12.9L92.35,12.9z M87.89,75.82h9.02V22.59h-9.02V75.82z M87.89,75.82"/>
	<g>
		<defs>
			<rect id="SVGID_5_" width="391" height="123"/>
		</defs>
		<clipPath id="SVGID_6_">
			<use xlink:href="#SVGID_5_"  style="overflow:visible;"/>
		</clipPath>
		<path class="st3" d="M92.35,12.9c3.21,0,5.7-2.5,5.7-5.63c0-3.23-2.49-5.84-5.7-5.84c-3.11,0-5.6,2.61-5.6,5.84
			C86.75,10.4,89.24,12.9,92.35,12.9L92.35,12.9z M87.89,75.82h9.02V22.59h-9.02V75.82z M87.89,75.82"/>
	</g>
	<path class="st1" d="M146.02,75.82h9.02V45.19c0-17.19-6.94-23.86-18.97-23.86c-5.7,0-10.37,2.08-13.69,6.67v-5.42h-9.02v53.23
		h9.02v-32.4c0-10.31,5.29-13.75,12.23-13.75c6.53,0,11.4,3.85,11.4,13.96V75.82z M146.02,75.82"/>
	<path class="st4" d="M146.02,75.82h9.02V45.19c0-17.19-6.94-23.86-18.97-23.86c-5.7,0-10.37,2.08-13.69,6.67v-5.42h-9.02v53.23
		h9.02v-32.4c0-10.31,5.29-13.75,12.23-13.75c6.53,0,11.4,3.85,11.4,13.96V75.82z M146.02,75.82"/>
	<path class="st1" d="M175.49,12.9c3.21,0,5.7-2.5,5.7-5.63c0-3.23-2.49-5.84-5.7-5.84c-3.11,0-5.6,2.61-5.6,5.84
		C169.89,10.4,172.38,12.9,175.49,12.9L175.49,12.9z M171.03,75.82h9.02V22.59h-9.02V75.82z M171.03,75.82"/>
	<g>
		<defs>
			<rect id="SVGID_7_" width="391" height="123"/>
		</defs>
		<clipPath id="SVGID_8_">
			<use xlink:href="#SVGID_7_"  style="overflow:visible;"/>
		</clipPath>
		<path class="st5" d="M175.49,12.9c3.21,0,5.7-2.5,5.7-5.63c0-3.23-2.49-5.84-5.7-5.84c-3.11,0-5.6,2.61-5.6,5.84
			C169.89,10.4,172.38,12.9,175.49,12.9L175.49,12.9z M171.03,75.82h9.02V22.59h-9.02V75.82z M171.03,75.82"/>
	</g>
</g>
</svg>
